<svg viewBox="0 0 38 38" fill="none" xmlns="http://www.w3.org/2000/svg">
<path d="M5.5 9.77995C5.5 8.03105 6.91777 6.61328 8.66667 6.61328H30.8333C32.5822 6.61328 34 8.03105 34 9.77995V30.3633C34 32.1122 32.5822 33.5299 30.8333 33.5299H8.66667C6.91777 33.5299 5.5 32.1122 5.5 30.3633V9.77995Z" fill="#1F6FEB"/>
<path d="M5.5 9.77995V15.28H19.75H34L34 9.77995C34 8.03105 32.5822 6.61328 30.8333 6.61328H8.66667C6.91776 6.61328 5.5 8.03105 5.5 9.77995Z" fill="#1E1E1E"/>
<path d="M24.833 8.19727V5.03027C24.833 4.33992 25.3927 3.78027 26.083 3.78027C26.7734 3.78027 27.333 4.33992 27.333 5.03027V8.19727C27.3328 8.88747 26.7733 9.44727 26.083 9.44727C25.3928 9.44727 24.8332 8.88747 24.833 8.19727Z" fill="#1E1E1E"/>
<path d="M24.833 8.19727V5.03027C24.833 4.33992 25.3927 3.78027 26.083 3.78027C26.7734 3.78027 27.333 4.33992 27.333 5.03027V8.19727C27.3328 8.88747 26.7733 9.44727 26.083 9.44727C25.3928 9.44727 24.8332 8.88747 24.833 8.19727Z" fill="black" fill-opacity="0.2"/>
<path d="M12.167 8.19727V5.03027C12.167 4.33992 12.7266 3.78027 13.417 3.78027C14.1073 3.78027 14.667 4.33992 14.667 5.03027V8.19727C14.6668 8.88747 14.1072 9.44727 13.417 9.44727C12.7267 9.44727 12.1672 8.88747 12.167 8.19727Z" fill="#1E1E1E"/>
<path d="M12.167 8.19727V5.03027C12.167 4.33992 12.7266 3.78027 13.417 3.78027C14.1073 3.78027 14.667 4.33992 14.667 5.03027V8.19727C14.6668 8.88747 14.1072 9.44727 13.417 9.44727C12.7267 9.44727 12.1672 8.88747 12.167 8.19727Z" fill="black" fill-opacity="0.2"/>
<path d="M21 18.2803V28.2803H18.5V18.2803H21Z" fill="white"/>
<path d="M24.75 22.0303V24.5303H14.75V22.0303H24.75Z" fill="white"/>
</svg>
