<svg viewBox="0 0 38 38" fill="none" xmlns="http://www.w3.org/2000/svg">
<path d="M30.5 24.5185C30.5 25.2651 30.1997 25.981 29.6653 26.5089C29.1308 27.0368 28.4059 27.3333 27.65 27.3333H4.85C4.09413 27.3333 3.36922 27.0368 2.83475 26.5089C2.30027 25.981 2 25.2651 2 24.5185V4.81481C2 4.06828 2.30027 3.35232 2.83475 2.82444C3.36922 2.29656 4.09413 2 4.85 2H11.975L14.825 6.22222H27.65C28.4059 6.22222 29.1308 6.51878 29.6653 7.04666C30.1997 7.57454 30.5 8.2905 30.5 9.03704V24.5185Z" fill="#1F6FEB"/>
<path d="M13.25 11.6665V13.6665H7.25V11.6665H13.25Z" fill="white"/>
<path d="M13.25 18.6665V20.6665H7.25L7.25 18.6665H13.25Z" fill="white"/>
<path d="M18.25 13.6665C18.25 13.1142 18.6977 12.6665 19.25 12.6665H25.25C25.8023 12.6665 26.25 13.1142 26.25 13.6665V19.6665C26.25 20.2188 25.8023 20.6665 25.25 20.6665H19.25C18.6977 20.6665 18.25 20.2188 18.25 19.6665V13.6665Z" fill="white"/>
<path d="M20 28C20 23.5817 23.5817 20 28 20C32.4183 20 36 23.5817 36 28C36 32.4183 32.4183 36 28 36C23.5817 36 20 32.4183 20 28Z" fill="#1E1E1E"/>
<path d="M30.9492 24.4648V31.5352H29.6797L26.5742 27.043H26.5156V31.5352H25.0508V24.4648H26.3398L29.4258 28.957H29.4941V24.4648H30.9492Z" fill="white"/>
</svg>
