<svg viewBox="0 0 38 38" fill="none" xmlns="http://www.w3.org/2000/svg">
<path d="M31.6667 17.4167C31.6667 25.2868 25.2868 31.6667 17.4167 31.6667C14.6126 31.6667 11.9976 30.8568 9.79295 29.458L3.16675 31.6667L5.37548 25.0405C3.97672 22.8359 3.16675 20.2209 3.16675 17.4167C3.16675 9.54669 9.54669 3.16675 17.4167 3.16675C25.2868 3.16675 31.6667 9.54669 31.6667 17.4167Z" fill="#1F6FEB"/>
<path d="M30.6667 17.4167C30.6667 10.099 24.7345 4.16675 17.4167 4.16675C10.099 4.16675 4.16675 10.099 4.16675 17.4167C4.16675 20.0255 4.91947 22.4555 6.21948 24.5046C6.38055 24.7585 6.41905 25.072 6.32397 25.3572L4.74683 30.0857L9.47632 28.5095L9.58472 28.4802C9.8392 28.426 10.1067 28.473 10.3289 28.614C12.378 29.914 14.808 30.6667 17.4167 30.6667C24.7345 30.6667 30.6667 24.7345 30.6667 17.4167ZM32.6667 17.4167C32.6667 25.8391 25.8391 32.6667 17.4167 32.6667C14.5893 32.6667 11.9393 31.8961 9.66772 30.5535L3.48315 32.615C3.12382 32.7348 2.72755 32.6416 2.45972 32.3738C2.19188 32.1059 2.09873 31.7097 2.21851 31.3503L4.27905 25.1648C2.93685 22.8935 2.16675 20.2437 2.16675 17.4167C2.16675 8.99441 8.99441 2.16675 17.4167 2.16675C25.8391 2.16675 32.6667 8.99441 32.6667 17.4167Z" fill="#1E1E1E"/>
<path d="M25 14.0085L17.6351 21.584C17.0959 22.1387 16.2217 22.1387 15.6824 21.584L12 17.7963L13.9527 15.7877L16.6588 18.5712L23.0473 12L25 14.0085Z" fill="white"/>
<path d="M20 28C20 23.5817 23.5817 20 28 20C32.4183 20 36 23.5817 36 28C36 32.4183 32.4183 36 28 36C23.5817 36 20 32.4183 20 28Z" fill="#1E1E1E"/>
<path d="M30.9492 24.4648V31.5352H29.6797L26.5742 27.043H26.5156V31.5352H25.0508V24.4648H26.3398L29.4258 28.957H29.4941V24.4648H30.9492Z" fill="white"/>
</svg>
