<svg viewBox="0 0 38 38" fill="none" xmlns="http://www.w3.org/2000/svg">
<path fill-rule="evenodd" clip-rule="evenodd" d="M27.9276 23.0686L27.9375 12.1942L21.1397 5.14896C19.0883 2.90738 15.7718 2.90738 13.7204 5.14896L6.9375 12.1761V23.0631C6.94296 26.2374 9.29154 28.8061 12.1838 28.8011H22.6813C25.5716 28.8061 27.9194 26.2407 27.9276 23.0686Z" fill="#1F6FEB"/>
<path d="M12.8653 4.32428C15.3822 1.59883 19.4772 1.59904 21.9942 4.32428L26.7504 9.25209V5.14841C26.7506 4.49278 27.2822 3.96091 27.9379 3.96091C28.5934 3.96113 29.1252 4.49291 29.1254 5.14841V11.7183L32.5472 15.3164C32.9992 15.7915 32.9805 16.5419 32.5054 16.994C32.0304 17.446 31.2799 17.4273 30.8278 16.9523L29.1223 15.1602L29.1146 23.0722C29.1046 26.7928 26.327 29.9924 22.6807 29.987L12.1834 29.9885C8.53494 29.9934 5.75598 26.7874 5.74958 23.0645V15.1556L4.05028 16.9507C3.5994 17.4267 2.84722 17.4477 2.37108 16.9971C1.89515 16.5462 1.87415 15.7941 2.3247 15.3179L6.07584 11.3596L6.08357 11.3519L12.8653 4.32428ZM20.264 5.9509C18.6834 4.22375 16.1778 4.22385 14.5971 5.9509C14.59 5.95866 14.5827 5.96654 14.5754 5.9741L8.12458 12.6553V23.0614L8.14778 23.5454C8.37024 25.92 10.1806 27.617 12.1819 27.6135H22.6838C24.8169 27.6169 26.7325 25.6885 26.7396 23.0661L26.7488 12.6723L20.2856 5.9741C20.2785 5.96668 20.2709 5.9585 20.264 5.9509Z" fill="#1E1E1E"/>
<path d="M32 25.2803C32 29.1463 28.866 32.2803 25 32.2803C21.134 32.2803 18 29.1463 18 25.2803C18 21.4143 21.134 18.2803 25 18.2803C28.866 18.2803 32 21.4143 32 25.2803Z" fill="white"/>
<path d="M32 25.2803C32 21.4143 28.866 18.2803 25 18.2803C21.134 18.2803 18 21.4143 18 25.2803C18 29.1463 21.134 32.2803 25 32.2803C26.9333 32.2803 28.6823 31.4983 29.9502 30.2305C31.218 28.9626 32 27.2135 32 25.2803ZM34 25.2803C34 27.4048 33.2602 29.3563 32.0293 30.8955L35.707 34.5732C36.0976 34.9638 36.0976 35.5968 35.707 35.9873C35.3165 36.3778 34.6835 36.3778 34.293 35.9873L30.6152 32.3096C29.0761 33.5405 27.1245 34.2803 25 34.2803C20.0294 34.2803 16 30.2508 16 25.2803C16 20.3097 20.0294 16.2803 25 16.2803C29.9706 16.2803 34 20.3097 34 25.2803Z" fill="#1E1E1E"/>
<path d="M29 23.2051L24.4678 27.7504C24.1359 28.0832 23.598 28.0832 23.2661 27.7504L21 25.4778L22.2017 24.2726L23.8669 25.9427L27.7983 22L29 23.2051Z" fill="#1E1E1E"/>
</svg>
